<?xml version="1.0" encoding="UTF-8"?>
<svg version="1.1" xmlns="http://www.w3.org/2000/svg" width="740" height="607">
<path d="M0 0 C3.13886745 1.15503736 6.03739879 2.66778215 8.984375 4.2421875 C10.26698212 4.90578781 10.26698212 4.90578781 11.57550049 5.58279419 C14.3074669 7.00029934 17.02865948 8.43721945 19.75 9.875 C21.53187776 10.80337874 23.31442509 11.73047353 25.09765625 12.65625 C30.40831866 15.41884149 35.70551924 18.20654866 41 21 C44.26539012 22.72180008 47.53098482 24.44321111 50.796875 26.1640625 C51.57661682 26.57498138 52.35635864 26.98590027 53.159729 27.40927124 C60.23306415 31.13213295 67.33555996 34.79690694 74.44702148 38.44628906 C84.52510353 43.61896145 94.59123928 48.81041486 104.6015625 54.11328125 C113.97238675 59.063593 123.40784355 63.89048576 132.83911133 68.72436523 C138.96809756 71.86888466 145.08691306 75.02106676 151.13671875 78.31640625 C152.00941406 78.78949219 152.88210938 79.26257813 153.78125 79.75 C155.32497017 80.59202918 156.86330157 81.44405876 158.39453125 82.30859375 C162.46415403 84.52410268 165.37744438 85.75838803 170 85 C172.73061674 83.78804688 175.22221726 82.52490421 177.8125 81.0625 C179.50007767 80.14228225 181.18898996 79.22450971 182.87890625 78.30859375 C183.83297363 77.78894043 184.78704102 77.26928711 185.77001953 76.73388672 C191.50445213 73.65558435 197.30225648 70.70006749 203.09371948 67.73086548 C206.69975534 65.88148154 210.30307344 64.0268221 213.90625 62.171875 C214.60757553 61.81088211 215.30890106 61.44988922 216.03147888 61.07795715 C221.94826298 58.03056587 227.85240772 54.95937297 233.75 51.875 C242.2383428 47.43569429 250.74030605 43.02321058 259.25 38.625 C260.482911 37.98771322 261.71582115 37.35042481 262.94873047 36.71313477 C263.5591922 36.3975914 264.16965393 36.08204803 264.7986145 35.75694275 C265.40905609 35.44140945 266.01949768 35.12587616 266.6484375 34.80078125 C267.25960419 34.48488541 267.87077087 34.16898956 268.50045776 33.84352112 C279.33958754 28.24048814 290.17153167 22.62360636 301 17 C302.61551758 16.16130371 302.61551758 16.16130371 304.26367188 15.30566406 C307.38491343 13.68447341 310.5051364 12.06134057 313.625 10.4375 C315.00147705 9.72267456 315.00147705 9.72267456 316.40576172 8.9934082 C321.34502887 6.41936587 326.21964694 3.77277485 331.02978516 0.96362305 C334.23004389 -0.60160883 336.53851386 -0.66567041 340 0 C342.64094957 1.97394709 344.64930378 3.56713346 345.4591037 6.87579536 C345.64332059 9.1867321 345.66154833 11.44967337 345.62818909 13.76782227 C345.63528347 14.65061387 345.64237786 15.53340548 345.64968723 16.44294834 C345.66729019 19.40121045 345.64915065 22.35816269 345.63110352 25.31640625 C345.63624144 27.43708902 345.64352176 29.55776752 345.65278625 31.67843628 C345.67132437 37.43878316 345.65834618 43.19866808 345.63869596 48.95899582 C345.62232821 54.98381858 345.63111974 61.00861165 345.63621521 67.03344727 C345.64073825 77.15160514 345.62485314 87.26957828 345.59692383 97.38769531 C345.56487111 109.08993836 345.56488706 120.79184817 345.5821386 132.49411488 C345.5979957 143.74578345 345.59127534 154.99732971 345.57420158 166.24899292 C345.56732432 171.03998057 345.5683705 175.83087039 345.57574654 180.62185669 C345.58340079 186.26245822 345.57131097 191.90267997 345.54389763 197.54321671 C345.53700374 199.61485797 345.53692652 201.68653463 345.54411316 203.7581749 C345.55278514 206.58326809 345.53688987 209.40718318 345.5146637 212.23217773 C345.52702485 213.46588277 345.52702485 213.46588277 345.53963572 214.72451115 C345.48268892 218.63834897 345.24979801 220.59019772 343.16437817 224.01140118 C340.12739647 226.80173529 338.18052948 226.58998626 334.09863281 226.5324707 C333.41173874 226.53010406 332.72484467 226.52773743 332.01713562 226.52529907 C330.52693486 226.51743891 329.03676039 226.49834949 327.54682159 226.46932411 C325.17241863 226.42521077 322.80002152 226.41504653 320.42523193 226.41410828 C313.67500699 226.40536038 306.92582501 226.33641193 300.17626953 226.24389648 C296.04105208 226.18958227 291.90710918 226.17543847 287.7715683 226.18349266 C286.2104923 226.17843664 284.64937718 226.15839522 283.08872223 226.12178993 C271.55848484 225.85320748 263.6148328 228.23562379 253.65658188 234.04109001 C251.57024149 235.24876508 249.43148294 236.33107071 247.2722168 237.40185547 C245.99741377 238.05605041 244.72306849 238.71113825 243.44921875 239.3671875 C242.74658401 239.72823578 242.04394928 240.08928406 241.32002258 240.46127319 C239.10863339 241.59812005 236.89800172 242.73642863 234.6875 243.875 C233.92042725 244.26973511 233.15335449 244.66447021 232.36303711 245.07116699 C223.89129359 249.43117009 215.42469548 253.79956096 207 258.25 C206.30769287 258.61456299 205.61538574 258.97912598 204.90209961 259.35473633 C200.90803735 261.45925251 196.92072012 263.57587371 192.93811035 265.70199585 C190.48779705 267.00676601 188.03267664 268.30231641 185.57666016 269.59631348 C183.79586374 270.53824101 182.02088946 271.49114995 180.24609375 272.44433594 C178.60060547 273.30913574 178.60060547 273.30913574 176.921875 274.19140625 C175.94831055 274.70904541 174.97474609 275.22668457 173.97167969 275.76000977 C169.98247359 277.42458237 166.38393788 278.73760869 162.09161377 277.40953064 C159.96380555 276.46287852 157.934922 275.40852817 155.890625 274.29296875 C155.13077301 273.89694458 154.37092102 273.50092041 153.58804321 273.09289551 C151.13266914 271.80805177 148.69164292 270.49821986 146.25 269.1875 C144.55702513 268.29562319 142.86317353 267.40540866 141.16845703 266.5168457 C137.11886708 264.38910377 133.07949972 262.24285846 129.04382324 260.08886719 C126.46468864 258.71480754 123.87811106 257.35527456 121.2890625 256 C118.40916412 254.49235502 115.53281115 252.97843157 112.66015625 251.45703125 C107.14458632 248.54195817 101.60985657 245.66370365 96.07305908 242.78921509 C94.39380146 241.91721785 92.71519454 241.04396785 91.03662109 240.1706543 C88.91541169 239.07035894 86.78888624 237.98023897 84.65664673 236.901474 C82.20793904 235.65005849 79.82213752 234.32718172 77.44848633 232.93917847 C67.29326186 227.17862483 59.11581485 225.89342786 47.57421875 226.140625 C45.96759699 226.14327211 44.36096372 226.14178441 42.75434875 226.13641357 C38.58093563 226.13070707 34.40926148 226.16868342 30.23620605 226.22027588 C23.51454827 226.29866678 16.79296573 226.32173593 10.07090187 226.3201828 C7.73315841 226.32801134 5.3969226 226.36279705 3.05949402 226.40045166 C1.63561416 226.4075233 0.21172968 226.41373561 -1.2121582 226.41894531 C-2.45407425 226.4341925 -3.6959903 226.4494397 -4.97554016 226.46514893 C-8 226 -8 226 -9.66479874 224.51656723 C-11.60762225 220.85476274 -11.41684061 217.31557494 -11.38768005 213.26977539 C-11.39575836 211.93356061 -11.39575836 211.93356061 -11.40399987 210.5703516 C-11.41833073 207.57931346 -11.41116308 204.58871468 -11.40405273 201.59765625 C-11.40975357 199.45579674 -11.41671672 197.31394027 -11.42485046 195.17208862 C-11.44282746 189.34988491 -11.44160507 183.52783153 -11.43590808 177.70560837 C-11.43282314 172.84944219 -11.43890085 167.99330517 -11.44494683 163.13714314 C-11.45900504 151.68417763 -11.45741965 140.2312867 -11.44604492 128.77832031 C-11.43455886 116.95169577 -11.44864475 105.12529787 -11.4754414 93.29870319 C-11.4975703 83.1534048 -11.50424222 73.00817769 -11.49836498 62.86285686 C-11.49498791 56.79963951 -11.49746039 50.73656749 -11.51461601 44.67337036 C-11.53003854 38.97372074 -11.52618175 33.27440797 -11.50731087 27.57477188 C-11.50361213 25.48012483 -11.50677059 23.38545307 -11.51719666 21.2908287 C-11.53032028 18.43690103 -11.51893593 15.58410282 -11.50120544 12.73022461 C-11.51081045 11.89637773 -11.52041546 11.06253084 -11.53031152 10.20341587 C-11.48407554 6.60001034 -11.32038363 4.43954474 -9.16795444 1.48655701 C-5.89402594 -0.75836164 -3.91228829 -0.52875533 0 0 Z " fill="#040404" transform="translate(200,86)"/>
<path d="M0 0 C3.61030626 1.57162458 7.04437598 3.42868053 10.5 5.3125 C12.56235208 6.41303766 14.62485633 7.51329019 16.6875 8.61328125 C17.73679687 9.17740723 18.78609375 9.7415332 19.8671875 10.32275391 C24.72354177 12.92275031 29.61215239 15.45986534 34.5 18 C36.41945099 19.0009567 38.33872142 20.00225969 40.2578125 21.00390625 C41.20688477 21.49906738 42.15595703 21.99422852 43.13378906 22.50439453 C46.9320843 24.48636699 50.73011215 26.46885039 54.52758789 28.45239258 C56.41627391 29.43746306 58.30607614 30.42039657 60.19702148 31.40112305 C65.42207355 34.11400191 70.61905663 36.87034335 75.79296875 39.6796875 C76.92234863 40.28562744 78.05172852 40.89156738 79.21533203 41.51586914 C81.40177087 42.68946531 83.58151341 43.8756472 85.75341797 45.07592773 C86.7435791 45.60387939 87.73374023 46.13183105 88.75390625 46.67578125 C89.62345947 47.14927002 90.4930127 47.62275879 91.38891602 48.1105957 C95.26627573 49.43132702 98.26128598 48.7047117 101.99682617 47.19067383 C102.58955322 46.86607178 103.18228027 46.54146973 103.79296875 46.20703125 C104.84097656 45.64338867 104.84097656 45.64338867 105.91015625 45.06835938 C106.66167969 44.65392578 107.41320312 44.23949219 108.1875 43.8125 C109.87826627 42.90115544 111.56971385 41.99107412 113.26171875 41.08203125 C114.63529541 40.34073975 114.63529541 40.34073975 116.03662109 39.58447266 C121.49474202 36.6661002 127.00062894 33.83962762 132.5 31 C139.40476745 27.42657634 146.30824132 23.85158994 153.18261719 20.2199707 C154.63771555 19.45175006 156.0940884 18.68593834 157.55175781 17.92260742 C161.85582752 15.66820501 166.14241211 13.38507725 170.41433716 11.07020569 C173.03292558 9.65611229 175.65973839 8.25774145 178.28790283 6.86154175 C179.58438193 6.16837491 180.87740845 5.46870702 182.16668701 4.76223755 C183.98266399 3.76824435 185.80969934 2.79814453 187.640625 1.83203125 C188.69797852 1.26202393 189.75533203 0.6920166 190.84472656 0.10473633 C195.28008568 -1.44818846 198.73283987 -0.86542993 203.07861328 0.79345703 C203.94075439 1.27081299 203.94075439 1.27081299 204.8203125 1.7578125 C205.50649658 2.12890137 206.19268066 2.49999023 206.8996582 2.88232422 C208.00120239 3.49744873 208.00120239 3.49744873 209.125 4.125 C210.78680394 5.0278045 212.44963798 5.92871443 214.11328125 6.828125 C215.49314209 7.57739258 215.49314209 7.57739258 216.90087891 8.34179688 C220.40869918 10.21867692 223.94035297 12.04437856 227.48046875 13.859375 C228.12612793 14.19077484 228.77178711 14.52217468 229.43701172 14.86361694 C232.03581866 16.19683884 234.63502503 17.529246 237.2366333 18.85699463 C239.07222857 19.79459401 240.90542627 20.73674509 242.73828125 21.6796875 C243.80087158 22.22351074 244.86346191 22.76733398 245.95825195 23.32763672 C252.27297076 26.79949031 252.27297076 26.79949031 255 29 C255.61962891 31.56152344 255.61962891 31.56152344 255 34 C253.36083984 35.63378906 253.36083984 35.63378906 251.0859375 37.015625 C249.8479541 37.77262695 249.8479541 37.77262695 248.58496094 38.54492188 C244.66029123 40.75412394 240.68144548 42.79458318 236.625 44.75 C234.84423839 45.62464737 233.06430839 46.50098963 231.28515625 47.37890625 C230.39586426 47.81734863 229.50657227 48.25579102 228.59033203 48.70751953 C224.71560959 50.6408636 220.88710049 52.65721345 217.0625 54.6875 C211.38985732 57.69720101 205.70305221 60.6766838 199.9921875 63.61328125 C183.02246068 72.29821453 183.02246068 72.29821453 166.33178711 81.50390625 C161.18587968 84.43550589 155.90222576 87.07457678 150.60025024 89.70904541 C142.86008935 93.55698019 135.16797655 97.49704199 127.47924805 101.4465332 C125.04108058 102.69849858 122.60162268 103.9479251 120.16210938 105.19726562 C119.36944672 105.60421661 118.57678406 106.0111676 117.76010132 106.43045044 C116.21320876 107.22449771 114.66539956 108.01676218 113.11660767 108.80709839 C109.25255443 110.79008186 105.51302415 112.87265824 101.80859375 115.14453125 C98.90285081 116.76621793 97.94474074 117.00109304 94.4453125 117.0703125 C90.26591513 115.77195096 86.68641359 114.0028444 82.875 111.875 C81.19617002 110.96456279 79.51641921 110.05582232 77.8359375 109.1484375 C76.91393555 108.64795898 75.99193359 108.14748047 75.04199219 107.63183594 C69.85764421 104.85076195 64.62307436 102.16681351 59.39233398 99.47439575 C49.96166037 94.61837753 40.54978674 89.72834324 31.17089844 84.77294922 C23.22205564 80.57839544 15.23913217 76.44991973 7.25830078 72.31665039 C-1.02115581 68.02809883 -9.2937628 63.72672498 -17.55737305 59.40771484 C-22.38388746 56.88517568 -27.21385495 54.36971384 -32.05078125 51.8671875 C-36.861567 49.37645574 -41.66298196 46.86874057 -46.45458984 44.34130859 C-48.08291368 43.48326033 -49.71326545 42.62904259 -51.34619141 41.77978516 C-53.3657926 40.72483733 -55.37196249 39.64848101 -57.375 38.5625 C-58.99535156 37.69818359 -58.99535156 37.69818359 -60.6484375 36.81640625 C-63 35 -63 35 -63.8515625 32.27734375 C-63.90054688 31.52582031 -63.94953125 30.77429688 -64 30 C-60.46783531 27.006101 -56.95826343 24.77910654 -52.8359375 22.6796875 C-52.2501442 22.3791597 -51.66435089 22.0786319 -51.06080627 21.76899719 C-49.16810069 20.79922149 -47.27159115 19.83715076 -45.375 18.875 C-43.41226811 17.87145672 -41.45054479 16.86595947 -39.48881531 15.86045837 C-38.18293947 15.19137313 -36.87671651 14.52296494 -35.57014465 13.85523987 C-30.00302863 11.00917096 -24.46429782 8.11110398 -18.9375 5.1875 C-16.29316866 3.78874803 -13.64754615 2.39267378 -11 1 C-10.33105713 0.63084473 -9.66211426 0.26168945 -8.97290039 -0.11865234 C-5.83120635 -1.52213155 -3.1795177 -0.95340453 0 0 Z " fill="#FDFDFD" transform="translate(271,142)"/>
<path d="M0 0 C0.66273926 0.36802734 1.32547852 0.73605469 2.00830078 1.11523438 C2.76304687 1.52483398 3.51779297 1.93443359 4.29541016 2.35644531 C5.4874707 3.02595215 5.4874707 3.02595215 6.70361328 3.70898438 C8.41899491 4.6426814 10.13515157 5.57495585 11.85205078 6.50585938 C12.69993164 6.96927734 13.5478125 7.43269531 14.42138672 7.91015625 C17.68644567 9.67183106 20.99895427 11.32373701 24.32861328 12.95898438 C35.0974833 18.28991551 45.7375633 23.87361877 56.39550781 29.421875 C59.69401997 31.13892158 62.99365995 32.8537838 66.29345703 34.56835938 C68.30526381 35.6150652 70.31698675 36.66193218 72.32861328 37.70898438 C73.22845947 38.1765918 74.12830566 38.64419922 75.05541992 39.12597656 C76.35080688 39.80128418 76.35080688 39.80128418 77.67236328 40.49023438 C78.51283203 40.9259375 79.35330078 41.36164063 80.21923828 41.81054688 C82.08349307 42.80965348 83.92527965 43.85114997 85.75048828 44.91992188 C86.71470703 45.479375 87.67892578 46.03882813 88.67236328 46.61523438 C89.54054688 47.13408203 90.40873047 47.65292969 91.30322266 48.1875 C94.45684086 49.46309344 95.6179936 49.2921314 98.82861328 48.20898438 C101.36869549 47.03555552 103.83150864 45.82444444 106.30517578 44.52539062 C107.38247452 43.96896126 107.38247452 43.96896126 108.48153687 43.40129089 C110.80872348 42.19734393 113.13118064 40.98457265 115.45361328 39.77148438 C117.06143088 38.93733321 118.66950479 38.10367592 120.27783203 37.27050781 C128.8473031 32.82626729 137.40548075 28.3594663 145.93701172 23.84277344 C153.94712122 19.60298354 162.00135342 15.44797104 170.05517578 11.29199219 C171.13283203 10.73479492 172.21048828 10.17759766 173.32080078 9.60351562 C174.92133301 8.77907959 174.92133301 8.77907959 176.55419922 7.93798828 C178.83854253 6.73177599 181.08752908 5.50530921 183.32958984 4.22607422 C185.03453613 3.26435303 185.03453613 3.26435303 186.77392578 2.28320312 C187.79244629 1.69498779 188.8109668 1.10677246 189.86035156 0.50073242 C193.83274124 -1.22799877 196.62223873 -1.62739483 200.74533081 -0.06443787 C202.99936487 0.97765599 205.18930785 2.10440322 207.38330078 3.26757812 C208.61211472 3.90144188 208.61211472 3.90144188 209.86575317 4.54811096 C212.48442277 5.90293002 215.09380294 7.27469195 217.70361328 8.64648438 C219.41921348 9.53490862 221.13535504 10.42228826 222.85205078 11.30859375 C252.07351504 26.45388614 252.07351504 26.45388614 254.82861328 29.20898438 C255.39111328 31.45898437 255.39111328 31.45898437 254.82861328 34.20898438 C253.29682922 35.42805481 253.29682922 35.42805481 251.27905273 36.6262207 C250.55029938 37.05971832 249.82154602 37.49321594 249.07070923 37.93984985 C245.7739133 39.80599547 242.43864948 41.5721076 239.05908203 43.28320312 C238.34521835 43.64845093 237.63135468 44.01369873 236.89585876 44.39001465 C235.38311946 45.16359564 233.86957936 45.93561247 232.35528564 46.70614624 C228.39615479 48.72083507 224.44293377 50.74707045 220.48876953 52.77148438 C219.71917908 53.16506638 218.94958862 53.55864838 218.15667725 53.9641571 C212.73592803 56.73803486 207.33359515 59.54422815 201.95361328 62.39648438 C194.10586565 66.55363519 186.21973982 70.6350204 178.32861328 74.70898438 C169.53576699 79.24891843 160.75359922 83.80692676 152.00610352 88.43383789 C147.47324636 90.82780376 142.92748502 93.19506995 138.37158203 95.54492188 C137.22923096 96.13450684 136.08687988 96.7240918 134.90991211 97.33154297 C132.57855794 98.53401899 130.24637329 99.73488636 127.91333008 100.93408203 C122.50847352 103.72579125 117.14720662 106.56101286 111.86767578 109.58398438 C110.95816162 110.10226807 110.04864746 110.62055176 109.11157227 111.15454102 C107.43066054 112.1207767 105.75763956 113.10092629 104.09448242 114.09741211 C103.35061279 114.52481689 102.60674316 114.95222168 101.84033203 115.39257812 C101.20571045 115.76954834 100.57108887 116.14651855 99.91723633 116.53491211 C95.62567166 117.91995127 92.21027635 116.3797277 88.23608398 114.60180664 C86.9044605 113.9181592 85.57743352 113.22550687 84.25439453 112.52539062 C83.53761032 112.15443771 82.82082611 111.7834848 82.08232117 111.40129089 C79.76439321 110.19922666 77.45277267 108.98555309 75.14111328 107.77148438 C73.53795939 106.9371301 71.93444209 106.10347374 70.33056641 105.27050781 C65.82437127 102.92718983 61.3255658 100.56997885 56.82861328 98.20898438 C55.81847168 97.67966309 54.80833008 97.1503418 53.76757812 96.60498047 C50.01835427 94.63923401 46.27350652 92.66544115 42.53173828 90.68554688 C36.56497119 87.53452808 30.5704949 84.43689322 24.57861328 81.33398438 C13.25441404 75.46927118 1.94279497 69.58099414 -9.36083984 63.67675781 C-13.17055254 61.68718235 -16.98106079 59.6991339 -20.79174805 57.71142578 C-22.69809078 56.71679813 -24.60418177 55.72168781 -26.51000977 54.72607422 C-31.5075862 52.11599525 -36.50978346 49.51532927 -41.51904297 46.92773438 C-42.55931641 46.38890625 -43.59958984 45.85007812 -44.67138672 45.29492188 C-46.65819832 44.26603729 -48.64640054 43.23983191 -50.63623047 42.21679688 C-63.73552088 35.42318208 -63.73552088 35.42318208 -65.04638672 31.77148438 C-62.97348669 25.70084858 -53.16785533 22.54922263 -47.68310547 19.77539062 C-46.8992598 19.37497055 -46.11541412 18.97455048 -45.30781555 18.56199646 C-42.82656125 17.29508029 -40.34290102 16.03297921 -37.85888672 14.77148438 C-35.39209906 13.51595116 -32.92586842 12.25934624 -30.46047974 11.00106812 C-28.87061374 10.18992766 -27.27986575 9.38051341 -25.6882019 8.57290649 C-20.52623245 5.94289725 -15.47344434 3.17154933 -10.5065918 0.18530273 C-6.86755504 -1.33613041 -3.70366085 -1.34920858 0 0 Z " fill="#EDE43A" transform="translate(271.17138671875,227.791015625)"/>
<path d="M0 0 C0.92675537 0.00273926 1.85351074 0.00547852 2.80834961 0.00830078 C11.33857128 0.13803232 19.20293645 1.27046855 26.8125 5.3125 C26.14414705 9.27855048 24.98584004 12.82719934 23.5 16.5625 C23.09136719 17.61953125 22.68273437 18.6765625 22.26171875 19.765625 C20.8125 22.3125 20.8125 22.3125 18.89453125 23.2578125 C16.4962543 23.32080664 15.01443677 22.87504339 12.8125 21.9375 C6.85451987 19.44725049 0.53709271 17.82266291 -5.6875 20.3125 C-6.1825 20.6425 -6.6775 20.9725 -7.1875 21.3125 C-7.1875 21.9725 -7.1875 22.6325 -7.1875 23.3125 C-5.83443944 23.73274469 -4.47992657 24.14831107 -3.125 24.5625 C-2.21878906 24.83964844 -1.31257813 25.11679687 -0.37890625 25.40234375 C2.55711271 26.23966617 5.50644233 26.94880822 8.47729492 27.64941406 C17.40288602 29.81494544 23.51556396 32.71456259 28.8125 40.3125 C31.13941511 46.23555665 30.18737309 52.79659713 27.78125 58.5 C24.55574509 64.53481564 17.9354418 68.94289262 11.53125 71.0703125 C-3.44269491 74.5220985 -19.56642399 72.24252113 -33.1875 65.3125 C-32.09662656 62.49416123 -30.99075527 59.68347051 -29.875 56.875 C-29.56626953 56.07255859 -29.25753906 55.27011719 -28.93945312 54.44335938 C-28.63330078 53.67958984 -28.32714844 52.91582031 -28.01171875 52.12890625 C-27.73416748 51.42193604 -27.45661621 50.71496582 -27.1706543 49.98657227 C-26.1875 48.3125 -26.1875 48.3125 -23.1875 47.3125 C-21.06640625 48.0546875 -21.06640625 48.0546875 -18.75 49.1875 C-13.20157353 51.87252533 -9.15769264 52.43259438 -2.9375 52.375 C-1.67421875 52.36597656 -0.4109375 52.35695313 0.890625 52.34765625 C2.33695312 52.33025391 2.33695312 52.33025391 3.8125 52.3125 C3.8125 50.9925 3.8125 49.6725 3.8125 48.3125 C2.96655273 48.11672363 2.96655273 48.11672363 2.10351562 47.91699219 C-0.49602691 47.30915485 -3.09165706 46.68593981 -5.6875 46.0625 C-6.574375 45.85753906 -7.46125 45.65257812 -8.375 45.44140625 C-17.10963821 43.32197198 -25.24030922 40.54122303 -30.2890625 32.57421875 C-32.58162649 26.80293809 -32.34976055 19.31215775 -30.125 13.5703125 C-26.17967379 7.20204139 -21.03510909 3.68182454 -14.0703125 1.203125 C-9.30727456 0.11059718 -4.86995993 -0.02892785 0 0 Z " fill="#FFFFFF" transform="translate(388.1875,450.6875)"/>
<path d="M0 0 C7.59 0 15.18 0 23 0 C23.33 10.56 23.66 21.12 24 32 C25.5675 29.855 27.135 27.71 28.75 25.5 C32.12105345 21.58837254 35.21513765 19.3267109 40.36376953 18.38427734 C48.58870544 17.8389599 56.7968292 18.28413928 65 19 C60.85766739 23.86426198 56.63856282 28.64448153 52.34375 33.375 C49.51485735 36.54335977 46.75374342 39.76633175 44 43 C45.97581883 45.6067217 47.955722 48.21030605 49.9375 50.8125 C50.8186145 51.96987671 50.8186145 51.96987671 51.7175293 53.15063477 C55.8455199 58.54972899 60.08502301 63.81811503 64.48828125 68.99609375 C66 71 66 71 66 73 C41.86606583 75.23803934 41.86606583 75.23803934 35.62646484 71.62597656 C31.74898735 68.00131182 29.45470204 63.64851788 27 59 C26.34 59 25.68 59 25 59 C23.64908472 61.70183055 23.66141942 64.11808206 23.4375 67.125 C23.293125 69.06375 23.14875 71.0025 23 73 C15.41 73 7.82 73 0 73 C0 48.91 0 24.82 0 0 Z " fill="#FFFFFF" transform="translate(590,448)"/>
<path d="M0 0 C4.70963986 3.8125656 7.06387987 7.283253 8.625 13.125 C8.87888805 16.02267647 8.85886356 18.89778698 8.8203125 21.8046875 C8.8174826 22.61745148 8.81465271 23.43021545 8.81173706 24.26760864 C8.80060619 26.84522675 8.77551515 29.42248819 8.75 32 C8.73996101 33.75520329 8.73083677 35.51041206 8.72265625 37.265625 C8.70239772 41.5523289 8.66323645 45.83826858 8.625 50.125 C1.695 50.125 -5.235 50.125 -12.375 50.125 C-12.705 49.135 -13.035 48.145 -13.375 47.125 C-14.24125 47.785 -15.1075 48.445 -16 49.125 C-21.67474294 52.36110595 -28.06685095 51.84530768 -34.375 51.125 C-39.79352989 49.56852521 -43.30553298 46.91336855 -46.375 42.125 C-47.82432983 37.77701052 -47.89169065 33.66904655 -47.375 29.125 C-44.82743373 24.12085198 -42.00283691 21.19709297 -36.828125 19.0859375 C-32.52135894 17.8874483 -28.44925066 17.67030625 -24 17.5 C-23.16855469 17.46132813 -22.33710938 17.42265625 -21.48046875 17.3828125 C-19.44564844 17.28925754 -17.41035584 17.20607287 -15.375 17.125 C-18.27298566 13.98127872 -20.02338042 13.36675664 -24.375 13.125 C-29.30728104 13.83831049 -33.77946331 15.21086609 -38.375 17.125 C-39.41013247 15.0487343 -40.42766211 12.96368521 -41.4375 10.875 C-42.00597656 9.71484375 -42.57445312 8.5546875 -43.16015625 7.359375 C-44.375 4.125 -44.375 4.125 -44.3515625 1.83984375 C-42.93046596 -0.65560178 -41.35376022 -1.08606689 -38.6875 -2.0625 C-37.83800781 -2.38605469 -36.98851562 -2.70960938 -36.11328125 -3.04296875 C-24.10870725 -6.69057825 -11.00487114 -6.1138173 0 0 Z M-24.375 30.125 C-24.705 31.775 -25.035 33.425 -25.375 35.125 C-22.54782787 37.45796251 -22.54782787 37.45796251 -19.3125 36.875 C-16.275541 36.3656756 -16.275541 36.3656756 -14.375 34.125 C-14.20812552 31.54145782 -14.20812552 31.54145782 -14.375 29.125 C-19.45803686 29.01179144 -19.45803686 29.01179144 -24.375 30.125 Z " fill="#FFFFFF" transform="translate(512.375,470.875)"/>
<path d="M0 0 C3.98359915 2.68444339 7.31394384 5.38736968 9 10 C9.05078125 12.01171875 9.05078125 12.01171875 8 14 C5.7186703 15.47858497 3.62136274 16.65549791 1.1875 17.8125 C0.55779297 18.13669922 -0.07191406 18.46089844 -0.72070312 18.79492188 C-3.36317562 20.08981658 -5.38878123 21.04546255 -8.36328125 20.82421875 C-10 20 -10 20 -11.375 18 C-12.90948879 15.7419903 -12.90948879 15.7419903 -15.875 15.0625 C-18.99339247 14.83543063 -18.99339247 14.83543063 -21.8125 15.875 C-24.71121211 18.69089176 -24.9189598 20.82004113 -25.125 24.7734375 C-24.94103383 28.05033488 -24.33024363 29.66975637 -22 32 C-18.63825863 33.25411568 -18.63825863 33.25411568 -15 33 C-12.19810554 31.23358828 -10.48475089 29.96950178 -9 27 C-4.64029169 28.34849837 -0.68658562 30.04907846 3.375 32.125 C4.43460938 32.66382813 5.49421875 33.20265625 6.5859375 33.7578125 C7.38257813 34.16773438 8.17921875 34.57765625 9 35 C8.16847176 40.90282394 5.39533899 44.12271201 1 48 C-6.85757025 53.27264994 -16.90684115 53.04280391 -26 52 C-33.92408487 50.27648605 -40.64766238 45.73214035 -45.34765625 39.09765625 C-49.58407239 31.91548839 -49.75210811 25.16824386 -49 17 C-46.88147776 9.6544696 -42.45632271 4.04324528 -36 0 C-24.30751961 -5.64522334 -11.60317396 -6.03291023 0 0 Z " fill="#FFFFFF" transform="translate(577,470)"/>
<path d="M0 0 C1.97411149 1.54256153 3.3791286 3.06541155 5 5 C5.4846875 4.59007812 5.969375 4.18015625 6.46875 3.7578125 C12.90238723 -1.41384204 18.56564922 -3.54988268 26.9296875 -3.23828125 C34.21866988 -2.39936064 38.71218664 0.01081907 43.58984375 5.4765625 C48.4013053 14.08654633 47.23309738 24.52035663 47.125 34.0625 C47.11495008 35.61132234 47.10582779 37.16015099 47.09765625 38.70898438 C47.07580207 42.47281428 47.04138343 46.23633623 47 50 C43.37 50 39.74 50 36 50 C35.98541748 48.96593018 35.97083496 47.93186035 35.95581055 46.86645508 C35.89769118 43.01763918 35.82045977 39.16940001 35.73754883 35.32104492 C35.70436345 33.65772892 35.67631166 31.99430204 35.65356445 30.33081055 C35.61990001 27.93490501 35.5675806 25.54000965 35.51171875 23.14453125 C35.50532883 22.4047554 35.4989389 21.66497955 35.49235535 20.90278625 C35.3664549 16.44822927 34.72354087 13.55800527 32 10 C27.76106227 7.09782271 22.93734698 7.3692033 18 8 C14.55700398 9.66001594 12.64705531 10.76193023 10.86962891 14.1628418 C9.78838869 17.69038041 9.64662325 21.05035756 9.5859375 24.70703125 C9.56657135 25.43242599 9.5472052 26.15782074 9.5272522 26.90519714 C9.46777892 29.20751422 9.42120155 31.50988219 9.375 33.8125 C9.33679042 35.37957832 9.29773697 36.94663631 9.2578125 38.51367188 C9.16210437 42.34228152 9.07795552 46.17098942 9 50 C5.37 50 1.74 50 -2 50 C-2.01458252 49.00145996 -2.02916504 48.00291992 -2.04418945 46.97412109 C-2.10240068 43.25013394 -2.17963077 39.52673708 -2.26245117 35.80322266 C-2.29559363 34.1952476 -2.32365854 32.58715919 -2.34643555 30.97900391 C-2.38017967 28.65999295 -2.43250194 26.34201069 -2.48828125 24.0234375 C-2.49467117 23.31069672 -2.5010611 22.59795593 -2.50764465 21.86361694 C-2.64307493 17.20937678 -3.56495753 13.96655109 -6 10 C-10.13566198 7.03124679 -15.12668444 7.36969736 -20 8 C-23.26369723 9.63184861 -25.22713985 10.89591406 -27.3125 13.875 C-28.88016552 18.7205116 -29.15393447 23.65110198 -29.31640625 28.7109375 C-29.35830078 29.95488281 -29.40019531 31.19882812 -29.44335938 32.48046875 C-29.48267578 33.76566406 -29.52199219 35.05085938 -29.5625 36.375 C-29.60568359 37.68339844 -29.64886719 38.99179687 -29.69335938 40.33984375 C-29.79912429 43.55979797 -29.90121579 46.77982531 -30 50 C-33.3 50 -36.6 50 -40 50 C-40 32.84 -40 15.68 -40 -2 C-36.7 -2 -33.4 -2 -30 -2 C-29.67 -0.35 -29.34 1.3 -29 3 C-28.319375 2.38125 -27.63875 1.7625 -26.9375 1.125 C-18.80811471 -4.75583191 -8.73398761 -4.25076203 0 0 Z " fill="#FFFFFF" transform="translate(126,471)"/>
<path d="M0 0 C7.59 0 15.18 0 23 0 C23 4.95 23 9.9 23 15 C26.63 15 30.26 15 34 15 C34 20.61 34 26.22 34 32 C30.37 32 26.74 32 23 32 C23.08702126 34.27155498 23.19519522 36.54230743 23.3125 38.8125 C23.37050781 40.07707031 23.42851562 41.34164062 23.48828125 42.64453125 C23.77440888 45.89403362 23.77440888 45.89403362 25.16796875 48.01171875 C27.94346766 49.50894951 30.03158882 48.72561162 33 48 C33.83919398 50.26882087 34.67151724 52.53977027 35.5 54.8125 C35.73847656 55.45509766 35.97695313 56.09769531 36.22265625 56.75976562 C37.27068746 59.64933739 38 61.90076061 38 65 C29.86768303 68.16186507 19.01757698 68.69018262 10.8125 65.375 C5.54517518 62.50008607 2.67834508 59.20284883 0.87890625 53.359375 C-0.16941672 48.87788438 -0.228232 44.58191246 -0.125 40 C-0.11597656 39.22527344 -0.10695313 38.45054687 -0.09765625 37.65234375 C-0.07439388 35.76809157 -0.0385364 33.88400168 0 32 C-2.31 32 -4.62 32 -7 32 C-7 26.39 -7 20.78 -7 15 C-4.69 15 -2.38 15 0 15 C0 10.05 0 5.1 0 0 Z " fill="#FFFFFF" transform="translate(425,455)"/>
<path d="M0 0 C3.3 0 6.6 0 10 0 C10.33 8.58 10.66 17.16 11 26 C12.65 24.68 14.3 23.36 16 22 C23.48121305 18.83429707 31.46279877 19.27207597 38.95703125 22.01953125 C43.74269386 24.31628329 46.67562271 28.35124543 49 33 C50.16124099 37.35899041 50.12889536 41.66697616 50.09765625 46.14453125 C50.0962413 46.91431808 50.09482635 47.68410492 50.09336853 48.47721863 C50.08779606 50.92235288 50.07524871 53.36739368 50.0625 55.8125 C50.05748144 57.47591013 50.05291915 59.1393217 50.04882812 60.80273438 C50.03783566 64.86852528 50.0205901 68.93424683 50 73 C46.37 73 42.74 73 39 73 C38.98541748 71.96593018 38.97083496 70.93186035 38.95581055 69.86645508 C38.89769118 66.01763918 38.82045977 62.16940001 38.73754883 58.32104492 C38.70436345 56.65772892 38.67631166 54.99430204 38.65356445 53.33081055 C38.61990001 50.93490501 38.5675806 48.54000965 38.51171875 46.14453125 C38.50532883 45.4047554 38.4989389 44.66497955 38.49235535 43.90278625 C38.36644117 39.44774345 37.72143863 36.5596434 35 33 C30.55575091 29.90590253 25.17790526 30.41467158 20 31 C15.8032001 32.79862853 14.44125413 34.12817587 12.38671875 38.1875 C10.07999554 44.68356357 10.42371717 51.68614779 10.3125 58.5 C10.27927158 59.90888486 10.24477695 61.31774045 10.20898438 62.7265625 C10.12689262 66.15096131 10.05761189 69.57511644 10 73 C6.7 73 3.4 73 0 73 C0 48.91 0 24.82 0 0 Z " fill="#FFFFFF" transform="translate(297,448)"/>
<path d="M0 0 C7.30278167 -0.41360887 14.53846391 1.21734628 20.23046875 5.98828125 C27.762951 14.17230733 28.08203125 19.58960946 28.08203125 31.1875 C14.55203125 31.1875 1.02203125 31.1875 -12.91796875 31.1875 C-9.06355753 39.39810238 -9.06355753 39.39810238 -1.91796875 43.1875 C5.86393236 45.2029564 11.26825898 43.3327469 18.08203125 39.5 C18.74203125 39.066875 19.40203125 38.63375 20.08203125 38.1875 C21.73203125 40.1675 23.38203125 42.1475 25.08203125 44.1875 C23.56600817 48.43236463 20.92113964 50.01441978 17.08203125 52.1875 C8.90271395 55.39507541 -0.22270138 55.18010746 -8.49609375 52.34765625 C-14.79197707 49.33172505 -19.5618978 44.7969125 -22.48046875 38.4375 C-25.33564533 29.85881275 -24.86685177 21.50043823 -21.109375 13.3046875 C-17.6466657 7.15128278 -11.14624905 2.59692677 -4.48046875 0.375 C-2.98575324 0.26563057 -1.49160086 0.14581841 0 0 Z M-8.91796875 13.1875 C-12.01900057 16.90873818 -12.91796875 18.30103925 -12.91796875 23.1875 C-2.68796875 23.1875 7.54203125 23.1875 18.08203125 23.1875 C17.2141728 17.0228531 17.2141728 17.0228531 13.20703125 13.375 C12.50835937 12.79105469 11.8096875 12.20710938 11.08984375 11.60546875 C4.55803706 6.99253912 -2.83130719 8.88326645 -8.91796875 13.1875 Z " fill="#FFFFFF" transform="translate(207.91796875,467.8125)"/>
<path d="M0 0 C1.84765625 1.60546875 1.84765625 1.60546875 3 3 C1.68 5.31 0.36 7.62 -1 10 C-3.87978859 9.47640207 -6.57718391 8.81829395 -9.375 7.9375 C-16.29300858 6.14835985 -20.76036856 6.94385399 -27 10 C-27.41780879 12.37305578 -27.41780879 12.37305578 -27 15 C-22.23701639 18.757254 -16.48539831 19.31132582 -10.68164062 20.37304688 C-5.03734625 21.50190575 -0.10778028 22.96625845 3.3515625 27.9453125 C5.0133057 33.21083614 4.72470317 38.36941787 2.5 43.375 C-2.45555263 48.57833026 -8.39278609 50.62152429 -15.47265625 51.203125 C-23.99337463 51.35734615 -33.25982733 50.68851452 -40 45 C-39.5206753 40.68607774 -38.2542015 38.83430453 -35 36 C-34.40832031 36.27714844 -33.81664062 36.55429687 -33.20703125 36.83984375 C-25.57850086 40.33677203 -18.95784469 42.44228209 -10.5625 40 C-9.2940625 39.505 -9.2940625 39.505 -8 39 C-6.99782936 35.41672247 -6.99782936 35.41672247 -8 32 C-10.43224796 31.18652464 -10.43224796 31.18652464 -13.375 30.5625 C-14.99728516 30.17771484 -14.99728516 30.17771484 -16.65234375 29.78515625 C-17.75707031 29.52605469 -18.86179687 29.26695312 -20 29 C-32.71576816 25.87370286 -32.71576816 25.87370286 -36 23 C-38.85096588 18.24839021 -39.50456506 14.62222783 -38.63671875 9.14453125 C-37.21416181 4.35321982 -34.25261556 1.75678857 -30 -0.8125 C-20.28926331 -4.65633327 -9.68868613 -3.58348665 0 0 Z " fill="#FFFFFF" transform="translate(282,471)"/>
</svg>
